<mxfile host="app.diagrams.net" modified="2024-03-05T08:54:27.599Z" agent="Mozilla/5.0 (Windows NT 10.0; Win64; x64; rv:109.0) Gecko/20100101 Firefox/115.0" version="23.1.0" etag="vrxHDu2-1gZgvPj3JOge" type="github">
  <diagram name="Seite-1" id="xdKeQINs2F3bOMw4I5j9">
    <mxGraphModel>
      <root>
        <mxCell id="0" />
        <mxCell id="1" parent="0" />
      </root>
    </mxGraphModel>
  </diagram>
</mxfile>
